<mxfile host="app.diagrams.net" modified="2023-04-28T03:54:57.242Z" agent="Mozilla/5.0 (Windows NT 10.0; Win64; x64) AppleWebKit/537.36 (KHTML, like Gecko) Chrome/112.0.0.0 Safari/537.36" etag="sXT--coK6ftolscQoHZA" version="21.2.3" type="github">
  <diagram name="Page-1" id="hkFMPOLG5NGAkWp2nmAu">
    <mxGraphModel dx="2390" dy="1327" grid="1" gridSize="10" guides="1" tooltips="1" connect="1" arrows="1" fold="1" page="1" pageScale="1" pageWidth="827" pageHeight="1169" math="0" shadow="0">
      <root>
        <mxCell id="0" />
        <mxCell id="1" parent="0" />
        <mxCell id="4MVSnLMPoykv9FrZ_p5f-1" value="" style="edgeStyle=orthogonalEdgeStyle;rounded=0;orthogonalLoop=1;jettySize=auto;html=1;strokeWidth=5;" edge="1" parent="1" source="4MVSnLMPoykv9FrZ_p5f-2" target="4MVSnLMPoykv9FrZ_p5f-4">
          <mxGeometry relative="1" as="geometry" />
        </mxCell>
        <mxCell id="4MVSnLMPoykv9FrZ_p5f-2" value="&lt;font face=&quot;Noto Serif Simplified Chinese&quot;&gt;&lt;span style=&quot;font-size: 18px;&quot;&gt;&lt;b&gt;菌种活化&lt;/b&gt;&lt;/span&gt;&lt;/font&gt;" style="rounded=0;whiteSpace=wrap;html=1;" vertex="1" parent="1">
          <mxGeometry x="400" y="224" width="120" height="60" as="geometry" />
        </mxCell>
        <mxCell id="4MVSnLMPoykv9FrZ_p5f-3" value="" style="edgeStyle=orthogonalEdgeStyle;rounded=0;orthogonalLoop=1;jettySize=auto;html=1;strokeWidth=5;" edge="1" parent="1" source="4MVSnLMPoykv9FrZ_p5f-4" target="4MVSnLMPoykv9FrZ_p5f-6">
          <mxGeometry relative="1" as="geometry" />
        </mxCell>
        <mxCell id="4MVSnLMPoykv9FrZ_p5f-4" value="&lt;font face=&quot;Noto Serif Simplified Chinese&quot;&gt;&lt;span style=&quot;font-size: 18px;&quot;&gt;&lt;b&gt;种子液培养&lt;/b&gt;&lt;/span&gt;&lt;/font&gt;" style="rounded=0;whiteSpace=wrap;html=1;" vertex="1" parent="1">
          <mxGeometry x="560" y="224" width="120" height="60" as="geometry" />
        </mxCell>
        <mxCell id="4MVSnLMPoykv9FrZ_p5f-5" value="" style="edgeStyle=orthogonalEdgeStyle;rounded=0;orthogonalLoop=1;jettySize=auto;html=1;strokeWidth=5;" edge="1" parent="1" source="4MVSnLMPoykv9FrZ_p5f-6" target="4MVSnLMPoykv9FrZ_p5f-8">
          <mxGeometry relative="1" as="geometry" />
        </mxCell>
        <mxCell id="4MVSnLMPoykv9FrZ_p5f-6" value="&lt;font face=&quot;Noto Serif Simplified Chinese&quot;&gt;&lt;span style=&quot;font-size: 18px;&quot;&gt;&lt;b&gt;发酵罐培养&lt;/b&gt;&lt;/span&gt;&lt;/font&gt;" style="rounded=0;whiteSpace=wrap;html=1;" vertex="1" parent="1">
          <mxGeometry x="716.75" y="224" width="120" height="60" as="geometry" />
        </mxCell>
        <mxCell id="4MVSnLMPoykv9FrZ_p5f-7" value="" style="edgeStyle=orthogonalEdgeStyle;rounded=0;orthogonalLoop=1;jettySize=auto;html=1;strokeWidth=3;" edge="1" parent="1" source="4MVSnLMPoykv9FrZ_p5f-8" target="4MVSnLMPoykv9FrZ_p5f-10">
          <mxGeometry relative="1" as="geometry" />
        </mxCell>
        <mxCell id="4MVSnLMPoykv9FrZ_p5f-8" value="&lt;font face=&quot;Noto Serif Simplified Chinese&quot;&gt;&lt;span style=&quot;font-size: 18px;&quot;&gt;&lt;b&gt;发酵后预处理&lt;/b&gt;&lt;/span&gt;&lt;/font&gt;" style="rounded=0;whiteSpace=wrap;html=1;" vertex="1" parent="1">
          <mxGeometry x="870" y="224" width="120" height="60" as="geometry" />
        </mxCell>
        <mxCell id="4MVSnLMPoykv9FrZ_p5f-9" value="" style="edgeStyle=orthogonalEdgeStyle;rounded=0;orthogonalLoop=1;jettySize=auto;html=1;strokeWidth=3;" edge="1" parent="1" source="4MVSnLMPoykv9FrZ_p5f-10" target="4MVSnLMPoykv9FrZ_p5f-12">
          <mxGeometry relative="1" as="geometry" />
        </mxCell>
        <mxCell id="4MVSnLMPoykv9FrZ_p5f-10" value="&lt;font face=&quot;Noto Serif Simplified Chinese&quot;&gt;&lt;span style=&quot;font-size: 18px;&quot;&gt;&lt;b&gt;细胞破碎&lt;br&gt;&lt;/b&gt;&lt;/span&gt;&lt;/font&gt;" style="rounded=0;whiteSpace=wrap;html=1;" vertex="1" parent="1">
          <mxGeometry x="1023.25" y="224" width="120" height="60" as="geometry" />
        </mxCell>
        <mxCell id="4MVSnLMPoykv9FrZ_p5f-11" value="" style="edgeStyle=orthogonalEdgeStyle;rounded=0;orthogonalLoop=1;jettySize=auto;html=1;strokeWidth=3;" edge="1" parent="1" source="4MVSnLMPoykv9FrZ_p5f-12" target="4MVSnLMPoykv9FrZ_p5f-30">
          <mxGeometry relative="1" as="geometry" />
        </mxCell>
        <mxCell id="4MVSnLMPoykv9FrZ_p5f-12" value="&lt;font face=&quot;Noto Serif Simplified Chinese&quot;&gt;&lt;span style=&quot;font-size: 18px;&quot;&gt;&lt;b&gt;离心&lt;br&gt;&lt;/b&gt;&lt;/span&gt;&lt;/font&gt;" style="rounded=0;whiteSpace=wrap;html=1;" vertex="1" parent="1">
          <mxGeometry x="1180" y="224" width="120" height="60" as="geometry" />
        </mxCell>
        <mxCell id="4MVSnLMPoykv9FrZ_p5f-13" value="" style="edgeStyle=orthogonalEdgeStyle;rounded=0;orthogonalLoop=1;jettySize=auto;html=1;strokeWidth=5;" edge="1" parent="1" source="4MVSnLMPoykv9FrZ_p5f-14" target="4MVSnLMPoykv9FrZ_p5f-16">
          <mxGeometry relative="1" as="geometry" />
        </mxCell>
        <mxCell id="4MVSnLMPoykv9FrZ_p5f-14" value="&lt;font face=&quot;Noto Serif Simplified Chinese&quot;&gt;&lt;span style=&quot;font-size: 18px;&quot;&gt;&lt;b&gt;合成ZIF-8&lt;/b&gt;&lt;/span&gt;&lt;/font&gt;" style="rounded=0;whiteSpace=wrap;html=1;" vertex="1" parent="1">
          <mxGeometry x="80" y="344" width="120" height="60" as="geometry" />
        </mxCell>
        <mxCell id="4MVSnLMPoykv9FrZ_p5f-15" value="" style="edgeStyle=orthogonalEdgeStyle;rounded=0;orthogonalLoop=1;jettySize=auto;html=1;strokeWidth=5;" edge="1" parent="1" source="4MVSnLMPoykv9FrZ_p5f-16" target="4MVSnLMPoykv9FrZ_p5f-18">
          <mxGeometry relative="1" as="geometry" />
        </mxCell>
        <mxCell id="4MVSnLMPoykv9FrZ_p5f-16" value="&lt;font face=&quot;Noto Serif Simplified Chinese&quot;&gt;&lt;span style=&quot;font-size: 18px;&quot;&gt;&lt;b&gt;离心&lt;/b&gt;&lt;/span&gt;&lt;/font&gt;" style="rounded=0;whiteSpace=wrap;html=1;" vertex="1" parent="1">
          <mxGeometry x="240" y="344" width="120" height="60" as="geometry" />
        </mxCell>
        <mxCell id="4MVSnLMPoykv9FrZ_p5f-17" value="" style="edgeStyle=orthogonalEdgeStyle;rounded=0;orthogonalLoop=1;jettySize=auto;html=1;strokeWidth=5;" edge="1" parent="1" source="4MVSnLMPoykv9FrZ_p5f-18" target="4MVSnLMPoykv9FrZ_p5f-20">
          <mxGeometry relative="1" as="geometry" />
        </mxCell>
        <mxCell id="4MVSnLMPoykv9FrZ_p5f-18" value="&lt;font face=&quot;Noto Serif Simplified Chinese&quot;&gt;&lt;span style=&quot;font-size: 18px;&quot;&gt;&lt;b&gt;干燥&lt;/b&gt;&lt;/span&gt;&lt;/font&gt;" style="rounded=0;whiteSpace=wrap;html=1;" vertex="1" parent="1">
          <mxGeometry x="396.75" y="344" width="120" height="60" as="geometry" />
        </mxCell>
        <mxCell id="4MVSnLMPoykv9FrZ_p5f-19" value="" style="edgeStyle=orthogonalEdgeStyle;rounded=0;orthogonalLoop=1;jettySize=auto;html=1;strokeWidth=3;" edge="1" parent="1" source="4MVSnLMPoykv9FrZ_p5f-20" target="4MVSnLMPoykv9FrZ_p5f-22">
          <mxGeometry relative="1" as="geometry" />
        </mxCell>
        <mxCell id="4MVSnLMPoykv9FrZ_p5f-20" value="&lt;font face=&quot;Noto Serif Simplified Chinese&quot;&gt;&lt;span style=&quot;font-size: 18px;&quot;&gt;&lt;b&gt;菌基功能化ZIF-8&lt;/b&gt;&lt;/span&gt;&lt;/font&gt;" style="rounded=0;whiteSpace=wrap;html=1;" vertex="1" parent="1">
          <mxGeometry x="550" y="344" width="120" height="60" as="geometry" />
        </mxCell>
        <mxCell id="4MVSnLMPoykv9FrZ_p5f-21" value="" style="edgeStyle=orthogonalEdgeStyle;rounded=0;orthogonalLoop=1;jettySize=auto;html=1;strokeWidth=3;" edge="1" parent="1" source="4MVSnLMPoykv9FrZ_p5f-22" target="4MVSnLMPoykv9FrZ_p5f-24">
          <mxGeometry relative="1" as="geometry" />
        </mxCell>
        <mxCell id="4MVSnLMPoykv9FrZ_p5f-22" value="&lt;font face=&quot;Noto Serif Simplified Chinese&quot;&gt;&lt;span style=&quot;font-size: 18px;&quot;&gt;&lt;b&gt;离心&lt;br&gt;&lt;/b&gt;&lt;/span&gt;&lt;/font&gt;" style="rounded=0;whiteSpace=wrap;html=1;" vertex="1" parent="1">
          <mxGeometry x="703.25" y="344" width="120" height="60" as="geometry" />
        </mxCell>
        <mxCell id="4MVSnLMPoykv9FrZ_p5f-23" value="" style="edgeStyle=orthogonalEdgeStyle;rounded=0;orthogonalLoop=1;jettySize=auto;html=1;strokeWidth=3;" edge="1" parent="1" source="4MVSnLMPoykv9FrZ_p5f-24" target="4MVSnLMPoykv9FrZ_p5f-26">
          <mxGeometry relative="1" as="geometry" />
        </mxCell>
        <mxCell id="4MVSnLMPoykv9FrZ_p5f-24" value="&lt;font face=&quot;Noto Serif Simplified Chinese&quot;&gt;&lt;span style=&quot;font-size: 18px;&quot;&gt;&lt;b&gt;干燥&lt;br&gt;&lt;/b&gt;&lt;/span&gt;&lt;/font&gt;" style="rounded=0;whiteSpace=wrap;html=1;" vertex="1" parent="1">
          <mxGeometry x="860" y="344" width="120" height="60" as="geometry" />
        </mxCell>
        <mxCell id="4MVSnLMPoykv9FrZ_p5f-25" value="" style="edgeStyle=orthogonalEdgeStyle;rounded=0;orthogonalLoop=1;jettySize=auto;html=1;strokeWidth=3;" edge="1" parent="1" source="4MVSnLMPoykv9FrZ_p5f-26" target="4MVSnLMPoykv9FrZ_p5f-28">
          <mxGeometry relative="1" as="geometry" />
        </mxCell>
        <mxCell id="4MVSnLMPoykv9FrZ_p5f-26" value="&lt;font face=&quot;Noto Serif Simplified Chinese&quot;&gt;&lt;span style=&quot;font-size: 18px;&quot;&gt;&lt;b&gt;戊二醛交联&lt;br&gt;&lt;/b&gt;&lt;/span&gt;&lt;/font&gt;" style="rounded=0;whiteSpace=wrap;html=1;" vertex="1" parent="1">
          <mxGeometry x="1020" y="344" width="120" height="60" as="geometry" />
        </mxCell>
        <mxCell id="4MVSnLMPoykv9FrZ_p5f-27" style="edgeStyle=orthogonalEdgeStyle;rounded=0;orthogonalLoop=1;jettySize=auto;html=1;entryX=0;entryY=0.5;entryDx=0;entryDy=0;strokeWidth=3;" edge="1" parent="1" source="4MVSnLMPoykv9FrZ_p5f-28" target="4MVSnLMPoykv9FrZ_p5f-30">
          <mxGeometry relative="1" as="geometry" />
        </mxCell>
        <mxCell id="4MVSnLMPoykv9FrZ_p5f-28" value="&lt;font face=&quot;Noto Serif Simplified Chinese&quot;&gt;&lt;span style=&quot;font-size: 18px;&quot;&gt;&lt;b&gt;离心&lt;br&gt;&lt;/b&gt;&lt;/span&gt;&lt;/font&gt;" style="rounded=0;whiteSpace=wrap;html=1;" vertex="1" parent="1">
          <mxGeometry x="1180" y="344" width="120" height="60" as="geometry" />
        </mxCell>
        <mxCell id="4MVSnLMPoykv9FrZ_p5f-29" style="edgeStyle=orthogonalEdgeStyle;rounded=0;orthogonalLoop=1;jettySize=auto;html=1;entryX=0.5;entryY=0;entryDx=0;entryDy=0;strokeWidth=3;" edge="1" parent="1" source="4MVSnLMPoykv9FrZ_p5f-30" target="4MVSnLMPoykv9FrZ_p5f-32">
          <mxGeometry relative="1" as="geometry" />
        </mxCell>
        <mxCell id="4MVSnLMPoykv9FrZ_p5f-30" value="&lt;font face=&quot;Noto Serif Simplified Chinese&quot;&gt;&lt;span style=&quot;font-size: 18px;&quot;&gt;&lt;b&gt;β琼胶酶固定化&lt;br&gt;&lt;/b&gt;&lt;/span&gt;&lt;/font&gt;" style="rounded=0;whiteSpace=wrap;html=1;" vertex="1" parent="1">
          <mxGeometry x="1400" y="284" width="140" height="60" as="geometry" />
        </mxCell>
        <mxCell id="4MVSnLMPoykv9FrZ_p5f-31" style="edgeStyle=orthogonalEdgeStyle;rounded=0;orthogonalLoop=1;jettySize=auto;html=1;entryX=0.5;entryY=0;entryDx=0;entryDy=0;strokeWidth=3;" edge="1" parent="1" source="4MVSnLMPoykv9FrZ_p5f-32" target="4MVSnLMPoykv9FrZ_p5f-34">
          <mxGeometry relative="1" as="geometry" />
        </mxCell>
        <mxCell id="4MVSnLMPoykv9FrZ_p5f-32" value="&lt;font face=&quot;Noto Serif Simplified Chinese&quot;&gt;&lt;span style=&quot;font-size: 18px;&quot;&gt;&lt;b&gt;离心&lt;br&gt;&lt;/b&gt;&lt;/span&gt;&lt;/font&gt;" style="rounded=0;whiteSpace=wrap;html=1;" vertex="1" parent="1">
          <mxGeometry x="1400" y="364" width="140" height="60" as="geometry" />
        </mxCell>
        <mxCell id="4MVSnLMPoykv9FrZ_p5f-33" value="" style="edgeStyle=orthogonalEdgeStyle;rounded=0;orthogonalLoop=1;jettySize=auto;html=1;strokeWidth=3;" edge="1" parent="1" source="4MVSnLMPoykv9FrZ_p5f-34" target="4MVSnLMPoykv9FrZ_p5f-35">
          <mxGeometry relative="1" as="geometry" />
        </mxCell>
        <mxCell id="4MVSnLMPoykv9FrZ_p5f-34" value="&lt;font face=&quot;Noto Serif Simplified Chinese&quot;&gt;&lt;span style=&quot;font-size: 18px;&quot;&gt;&lt;b&gt;真空干燥&lt;br&gt;&lt;/b&gt;&lt;/span&gt;&lt;/font&gt;" style="rounded=0;whiteSpace=wrap;html=1;" vertex="1" parent="1">
          <mxGeometry x="1400" y="444" width="140" height="60" as="geometry" />
        </mxCell>
        <mxCell id="4MVSnLMPoykv9FrZ_p5f-35" value="&lt;font face=&quot;Noto Serif Simplified Chinese&quot;&gt;&lt;span style=&quot;font-size: 18px;&quot;&gt;&lt;b&gt;包装&lt;br&gt;&lt;/b&gt;&lt;/span&gt;&lt;/font&gt;" style="rounded=0;whiteSpace=wrap;html=1;" vertex="1" parent="1">
          <mxGeometry x="1400" y="524" width="140" height="60" as="geometry" />
        </mxCell>
      </root>
    </mxGraphModel>
  </diagram>
</mxfile>
